<svg width="214" height="202" viewBox="0 0 214 202" fill="none" xmlns="http://www.w3.org/2000/svg">
<path opacity="0.3" d="M104.708 176.013C142.647 176.013 173.402 145.258 173.402 107.319C173.402 69.3802 142.647 38.6248 104.708 38.6248C66.7689 38.6248 36.0134 69.3802 36.0134 107.319C36.0134 145.258 66.7689 176.013 104.708 176.013Z" fill="#BA68C8"/>
<path d="M51.3358 83.1591C52.5581 83.4812 53.7498 83.91 54.8972 84.4404L47.9303 87.7875C47.9303 87.7875 46.6782 87.0859 47.3895 84.9958C48.1008 82.9058 50.2104 82.8132 51.3358 83.1591Z" fill="#BA68C8"/>
<path opacity="0.45" d="M51.3358 83.1591C52.5581 83.4812 53.7498 83.91 54.8972 84.4404L47.9303 87.7875C47.9303 87.7875 46.6782 87.0859 47.3895 84.9958C48.1008 82.9058 50.2104 82.8132 51.3358 83.1591Z" fill="black"/>
<path d="M86.818 46.2104C86.7251 41.6129 87.1566 37.0199 88.1042 32.5202C89.0104 28.4765 93.3513 28.4083 94.6131 31.4094C95.4267 33.3582 95.9967 35.2729 96.2403 41.1094L86.818 46.2104Z" fill="#BA68C8"/>
<path opacity="0.45" d="M86.818 46.2104C86.7251 41.6129 87.1566 37.0199 88.1042 32.5202C89.0104 28.4765 93.3513 28.4083 94.6131 31.4094C95.4267 33.3582 95.9967 35.2729 96.2403 41.1094L86.818 46.2104Z" fill="black"/>
<path d="M73.9122 56.3488C73.8703 51.9393 74.2982 47.5379 75.1887 43.219C76.1923 38.766 81.3663 40.5881 82.5599 43.6234C83.3297 45.5721 83.3102 46.0934 83.4223 51.9349L73.9122 56.3488Z" fill="#BA68C8"/>
<path opacity="0.45" d="M73.9122 56.3488C73.8703 51.9393 74.2982 47.5379 75.1887 43.219C76.1923 38.766 81.3663 40.5881 82.5599 43.6234C83.3297 45.5721 83.3102 46.0934 83.4223 51.9349L73.9122 56.3488Z" fill="black"/>
<path d="M100.172 47.3163C99.9479 41.47 100.625 38.8879 101.444 36.793C102.34 34.5031 105.926 34.4739 107.056 36.7637C107.767 38.2009 109.151 41.5236 109.979 47.1361L100.172 47.3163Z" fill="#BA68C8"/>
<path opacity="0.45" d="M100.172 47.3163C99.9479 41.47 100.625 38.8879 101.444 36.793C102.34 34.5031 105.926 34.4739 107.056 36.7637C107.767 38.2009 109.151 41.5236 109.979 47.1361L100.172 47.3163Z" fill="black"/>
<path d="M114.052 63.7153C115.392 58.892 116.059 56.6558 117.068 54.8289C118.734 51.7888 120.888 52.3344 121.881 54.5999C122.666 56.3781 122.983 60.2367 122.115 63.4181C118.32 65.9222 114.052 63.7153 114.052 63.7153Z" fill="#BA68C8"/>
<path opacity="0.45" d="M114.052 63.7153C115.392 58.892 116.059 56.6558 117.068 54.8289C118.734 51.7888 120.888 52.3344 121.881 54.5999C122.666 56.3781 122.983 60.2367 122.115 63.4181C118.32 65.9222 114.052 63.7153 114.052 63.7153Z" fill="black"/>
<path d="M123.085 55.6959C121.818 53.7472 118.7 52.7728 117.214 54.4487C116.278 55.4962 113.409 64.7431 112.42 69.0304C111.816 72.4164 111.217 74.1995 110.164 79.3589C110.164 79.3589 110.374 73.5126 110.315 72.5382C110.715 67.7004 111.465 63.8077 111.168 56.7434C111.455 52.779 111.489 48.8003 111.27 44.8315C110.919 38.1862 105.779 35.8525 102.963 36.5151C100.688 37.0462 100.299 39.9255 100.04 45.3674C100.033 43.1879 99.8476 41.0126 99.4849 38.8634C98.2182 32.1304 92.9273 30.7711 90.2282 31.7796C87.7484 32.7053 87.0225 36.7636 86.8179 40.705C86.623 44.7341 86.5792 49.1578 85.9702 53.4159C85.9702 53.4159 85.785 46.6829 82.8862 43.9497C81.1567 42.3176 77.8925 41.8791 76.7086 42.5515C75.4127 43.2822 74.8963 44.5002 74.1606 49.9032C73.8001 52.5584 73.3226 56.646 72.8403 60.0076C72.0559 65.4739 71.9341 71.1741 71.1497 74.9498C70.0134 80.8744 69.3891 86.8858 69.2838 92.9175C69.1961 98.1987 69.1571 103.538 69.0305 108.795C68.8161 107.904 68.1389 106.423 67.7979 105.19C67.3107 103.373 66.6919 101.741 66.1414 99.9136C65.0361 96.2248 63.286 92.7609 60.9723 89.6826C58.7361 86.7204 55.7106 84.0116 52.0225 83.5926C50.5609 83.427 48.8801 83.7583 48.125 85.0152C47.8312 85.5782 47.6743 86.2024 47.667 86.8373C47.5452 89.0297 48.1152 91.2221 48.6414 93.3316C48.9824 94.7591 49.2991 96.1233 49.6158 97.5751C50.8435 103.295 50.6925 109.131 51.5938 114.88C52.3928 119.971 54.3659 124.712 55.4377 129.681C56.0662 132.604 57.216 135.308 58.2927 138.095C58.7214 139.206 59.082 140.297 59.5692 141.413C60.1995 142.763 60.6232 144.2 60.8261 145.676C61.3133 150.211 58.8773 154.767 57.255 158.869C55.6716 162.849 54.1467 166.849 52.5925 170.839C52.4805 171.132 51.1943 173.948 51.321 174.069C49.1481 179.219 51.5402 184.88 58.5119 188.904C69.1279 195.038 86.3453 195.038 96.9661 188.904C101.648 186.2 104.274 182.756 104.815 179.229C105.721 173.499 107.29 164.423 109.36 160.121C111.309 156.111 111.879 155.678 114.037 151.8C116.961 146.533 118.573 143.172 119.168 137.184C119.621 132.556 119.733 128.58 120.093 123.942C120.196 122.573 120.327 121.199 120.488 119.83C121.209 113.886 122.636 107.587 120.858 101.687C120.736 101.283 120.04 100.123 120.108 99.7382C120.108 99.7382 121.984 88.83 121.808 82.5988C122.802 78.6942 123.374 74.6941 123.513 70.6674C125.019 64.0075 125.75 59.8517 123.085 55.6959Z" fill="#FFBDA7"/>
<path d="M72.3192 113.911C71.1207 110.832 70.9648 108.508 70.614 105.78C70.2096 102.637 69.9319 87.9872 70.3265 80.2993C70.2681 80.9668 70.1707 81.6683 70.0586 82.3942C69.6542 85.8046 69.3717 89.6096 69.3132 93.2343C69.2158 98.8857 68.9234 104.976 69.0842 109.136C69.6835 110.111 70.3217 111.085 70.9404 112.059C71.0427 112.259 72.3338 113.95 72.3192 113.911Z" fill="#F0997A"/>
<path d="M112.815 95.6751C102.233 89.9506 84.4844 91.2904 78.4626 94.0333C78.4626 94.0333 83.2712 89.8337 96.2988 90.2234C109.633 90.618 112.815 95.6751 112.815 95.6751Z" fill="#F0997A"/>
<path d="M112.42 69.0306C111.816 72.4166 111.217 74.1997 110.164 79.3591C110.262 82.555 110.223 88.4696 108.956 93.6095L111.139 94.4182C112.004 90.0001 112.299 85.4892 112.016 80.996C111.776 75.8505 112.202 70.6956 113.282 65.6592C112.941 66.9259 112.634 68.1 112.42 69.0306Z" fill="#F0997A"/>
<path d="M121.073 82.823C121.073 82.823 117.263 83.5635 114.052 81.7122C114.052 81.7122 115.027 83.1737 117.575 83.4466C120.4 83.7681 121.073 82.823 121.073 82.823Z" fill="#F0997A"/>
<path d="M109.375 72.548C109.375 72.548 105.609 73.4591 102.316 71.7588C102.316 71.7588 103.368 73.157 105.911 73.3276C108.752 73.5224 109.375 72.548 109.375 72.548Z" fill="#F0997A"/>
<path d="M98.4378 69.6931C98.4378 69.6931 94.8813 71.2326 91.3442 70.117C91.3442 70.117 92.6207 71.3155 95.1541 71.0524C97.9847 70.7601 98.4378 69.6931 98.4378 69.6931Z" fill="#F0997A"/>
<path d="M123.304 70.7357C123.304 70.7357 119.504 71.5055 116.274 69.6833C116.274 69.6833 117.278 71.1206 119.811 71.3837C122.642 71.7101 123.304 70.7357 123.304 70.7357Z" fill="#F0997A"/>
<path d="M110.427 56.4171C110.427 56.4171 106.647 57.2696 103.383 55.5157C103.383 55.5157 104.411 56.9335 106.954 57.143C109.789 57.3817 110.427 56.4171 110.427 56.4171Z" fill="#F0997A"/>
<path d="M98.4424 51.9105C98.4424 51.9105 94.8177 53.2844 91.3391 52.008C91.3391 52.008 92.5571 53.2649 95.1051 53.1188C97.9455 52.9531 98.4424 51.9105 98.4424 51.9105Z" fill="#F0997A"/>
<path d="M85.3564 60.5826C85.3564 60.5826 81.7415 61.9858 78.2483 60.7337C78.2483 60.7337 79.476 61.8932 82.024 61.8152C84.9034 61.7275 85.3564 60.5826 85.3564 60.5826Z" fill="#F0997A"/>
<path d="M83.8316 74.5894C83.8316 74.5894 80.1046 75.6563 76.7429 74.1022C76.7429 74.1022 77.8537 75.3689 80.4017 75.5248C83.2713 75.6856 83.8316 74.5894 83.8316 74.5894Z" fill="#F0997A"/>
<path d="M99.7239 51.9105C100.382 56.456 101.02 64.1293 99.5436 69.849C100.26 74.4432 100.104 83.0032 98.4133 91.5583L100.362 91.836C100.362 91.836 102.73 78.0874 101.093 69.9611C101.093 69.9611 103.378 62.1952 101.687 54.7265C101.736 54.1516 100.445 40.5979 100.45 40.4858C100.212 42.273 100.072 44.0718 100.031 45.8742C99.8359 50.371 99.7239 51.9105 99.7239 51.9105Z" fill="#F0997A"/>
<path d="M84.6841 74.8282C85.8339 78.8865 85.9264 86.6329 85.4685 92.1138L87.3101 91.9579C87.3977 88.2552 87.656 80.0558 86.0239 74.6625C86.5111 72.7917 88.0993 65.5277 86.7644 60.3001C87.0986 57.4962 87.2758 54.6758 87.2954 51.8521C87.2954 49.1092 87.0031 43.5698 86.8082 41.1729C86.6329 45.0704 86.5647 49.3333 85.98 53.4355C86.0369 55.8597 85.9295 58.285 85.6585 60.6947C86.1603 62.9407 85.8875 70.6919 84.6841 74.8282Z" fill="#F0997A"/>
<path d="M66.0489 102.238C66.0489 102.238 65.8881 103.495 58.6484 106.218C58.6484 106.218 64.7189 106.009 66.0489 102.238Z" fill="#F0997A"/>
<path d="M120.298 98.7542C119.477 97.893 118.422 97.2902 117.263 97.0198C118.436 97.6739 119.425 98.6141 120.137 99.7529C120.137 99.7529 120.186 99.3875 120.298 98.7542Z" fill="#F0997A"/>
<path d="M76.4507 111.256C81.7075 113.365 92.1627 118.939 97.1369 128.965C102.111 138.992 98.7788 154.09 98.7788 154.09C102.248 148.56 105.804 136.517 100.343 126.32C94.9056 116.201 84.0168 111.753 76.4507 111.256Z" fill="#F0997A"/>
<path opacity="0.4" d="M83.8316 161.841C78.8817 160.311 73.6492 159.269 69.6153 155.839C65.401 152.253 62.4681 147.264 59.964 142.407C60.3991 143.473 60.6923 144.592 60.836 145.734C61.3232 150.27 58.8873 154.825 57.2649 158.927C56.1541 161.714 55.0725 164.516 53.991 167.312C55.0131 166.539 56.0838 165.833 57.1967 165.198C58.9867 164.124 60.9451 163.359 62.9894 162.937C66.0734 162.367 69.2255 162.854 72.2997 163.249C76.2849 163.76 80.3189 164.033 84.2213 162.854C84.3594 162.831 84.4843 162.759 84.5721 162.65C84.7865 162.333 84.3334 161.992 83.968 161.88L83.8316 161.841Z" fill="#F0997A"/>
<path d="M49.6256 97.619C49.8856 97.8355 50.1958 97.9833 50.5278 98.0489C50.8598 98.1144 51.2029 98.0956 51.5257 97.9941C52.5439 97.6044 51.6475 89.6777 48.8802 87.2759C48.5099 86.9592 46.4832 85.8727 47.9058 84.1968C48.2988 83.7498 48.8019 83.4135 49.3651 83.2211C49.9284 83.0288 50.5322 82.9873 51.1164 83.1006C51.1164 83.1006 48.7876 82.4721 47.3553 84.2796C45.8547 86.1797 46.8145 87.5779 47.7207 90.9054C48.6269 94.233 49.3333 96.8297 49.6256 97.619Z" fill="#BA68C8"/>
<path opacity="0.2" d="M49.6256 97.619C49.8856 97.8355 50.1958 97.9833 50.5278 98.0489C50.8598 98.1144 51.2029 98.0956 51.5257 97.9941C52.5439 97.6044 51.6475 89.6777 48.8802 87.2759C48.5099 86.9592 46.4832 85.8727 47.9058 84.1968C48.2988 83.7498 48.8019 83.4135 49.3651 83.2211C49.9284 83.0288 50.5322 82.9873 51.1164 83.1006C51.1164 83.1006 48.7876 82.4721 47.3553 84.2796C45.8547 86.1797 46.8145 87.5779 47.7207 90.9054C48.6269 94.233 49.3333 96.8297 49.6256 97.619Z" fill="black"/>
<path d="M166.367 180.106C165.958 179.355 164.063 176.491 162.913 174.683C157.169 165.68 151.668 159.298 151.537 148.618C151.474 143.659 152.74 138.787 153.388 133.866C154.255 127.304 154.041 121.087 153.593 114.529C153.106 107.709 153.008 100.805 154.104 94.0332C154.47 91.7922 155.181 87.8946 152.55 86.6717C149.919 85.4489 147.191 86.2333 145.135 88.182C143.48 89.6558 142.153 91.4598 141.238 93.4778C140.375 95.2868 139.781 97.212 139.474 99.1926C138.319 91.3975 137.34 85.7851 136.799 79.3249C136.487 75.6125 136.999 75.3786 136.068 69.8587C135.355 66.0307 134.855 62.1662 134.568 58.283C134.295 54.6193 133.272 48.2273 132.809 45.5039C132.346 42.7805 131.396 40.5637 129.374 39.9742C127.353 39.3847 125.589 40.0278 124.478 40.4322C124.478 40.4322 124.322 35.4628 123.991 31.9745C123.699 28.8711 120.956 27.3023 117.657 28.2718C114.359 29.2414 112.298 32.5251 111.811 35.8331C107.758 34.9659 104.586 36.7344 103.344 40.4614C102.231 44.1137 101.484 47.8672 101.112 51.6669C100.986 53.6449 101.258 56.8896 101.205 57.1235C100.874 58.5461 99.9771 66.0245 99.7433 69.6492C99.5553 72.1099 99.5244 74.5801 99.6507 77.0448C99.7335 78.7597 98.8176 82.8375 98.6033 88.1333C98.6033 88.1333 97.2878 81.03 97.0491 79.6659C96.8104 78.3018 96.7324 74.794 96.3378 72.8793C95.9432 70.9646 95.5047 65.9368 95.2075 63.7542C94.8519 61.1087 93.7947 59.9151 91.8264 59.6958C88.7473 59.3451 84.918 61.7226 84.2993 68.212C83.6805 74.7014 84.4308 77.0204 84.5964 79.7585C83.9241 83.427 84.2944 90.0529 84.8449 93.1904C84.7523 101.556 86.8716 113.35 87.5001 115.986C88.1286 118.622 88.265 125.009 90.1748 138.163C92.6887 155.488 95.0467 159.02 98.4571 164.598C101.867 170.177 104.625 171.107 109.507 180.057C110.715 182.388 111.68 184.837 112.386 187.365C112.435 187.496 112.47 187.631 112.493 187.769C113.394 190.99 115.996 194.103 120.288 196.568C131.158 202.843 148.784 202.843 159.653 196.568C167.371 192.12 169.602 185.713 166.367 180.106Z" fill="#B16668"/>
<path d="M149.213 103.811C149.149 103.86 149.213 104.016 149.3 103.987C149.735 103.827 150.181 103.702 150.635 103.612C151.093 103.544 151.557 103.523 152.019 103.548C152.441 103.57 152.86 103.619 153.276 103.694C153.276 103.568 153.276 103.441 153.276 103.314C152.8 103.237 152.32 103.191 151.839 103.178C150.919 103.115 150.003 103.336 149.213 103.811Z" fill="#9A4A4D"/>
<path d="M153.251 105.511C152.974 105.586 152.692 105.647 152.409 105.692C151.314 105.818 150.209 105.818 149.115 105.692C148.959 105.692 149.052 105.921 149.169 105.935C150.313 106.165 151.487 106.217 152.647 106.091C152.852 106.062 153.052 106.018 153.251 105.969V105.511Z" fill="#9A4A4D"/>
<path d="M147.644 104.966C148.303 105.063 148.97 105.102 149.637 105.083C149.963 105.083 150.285 105.049 150.611 105.015C150.922 105.004 151.23 104.943 151.522 104.834C151.59 104.8 151.556 104.664 151.483 104.659C151.142 104.67 150.802 104.702 150.465 104.756C150.158 104.79 149.846 104.81 149.539 104.825C148.901 104.844 148.261 104.829 147.624 104.781C147.522 104.776 147.581 104.951 147.644 104.966Z" fill="#9A4A4D"/>
<path d="M124.473 40.4225C124.502 49.2992 124.814 52.2905 124.868 56.2319C124.921 60.1733 124.712 65.0745 124.868 68.7382C125.024 72.4019 125.277 76.0948 125.735 80.4844C126.193 84.874 126.709 90.8129 126.86 93.5607C127.011 96.3085 129.379 101.546 132.307 102.033C129.706 100.318 128.137 96.5813 127.82 91.2611C127.503 85.941 127.226 80.9521 126.758 75.3494C126.29 69.7467 126.1 64.4752 126.071 59.4474C126.022 52.919 124.473 40.4225 124.473 40.4225Z" fill="#9A4A4D"/>
<path d="M133.252 57.6642C132.721 57.7422 132.195 57.8835 131.664 57.976C131.145 58.0639 130.621 58.1224 130.095 58.1514C129.018 58.1864 127.939 58.1359 126.87 58.0004C126.802 58.0004 126.836 58.1173 126.87 58.1319C127.934 58.4326 129.041 58.548 130.144 58.473C130.683 58.4493 131.22 58.3891 131.752 58.2927C132.296 58.2186 132.826 58.0643 133.325 57.8348C133.413 57.7958 133.325 57.6496 133.252 57.6642Z" fill="#9A4A4D"/>
<path d="M132.58 59.4035C132.234 59.4863 131.893 59.5886 131.542 59.652C131.22 59.706 130.894 59.7354 130.568 59.7397C130.212 59.7397 129.852 59.7397 129.491 59.7007C129.191 59.6593 128.888 59.6446 128.585 59.6568C128.497 59.6568 128.556 59.8128 128.609 59.8322C128.99 59.9373 129.38 60.001 129.774 60.0222C130.098 60.0521 130.423 60.0635 130.748 60.0564C131.409 60.0923 132.064 59.9221 132.624 59.5692C132.716 59.5302 132.658 59.384 132.58 59.4035Z" fill="#9A4A4D"/>
<path d="M135.026 71.749C134.833 71.5343 134.58 71.383 134.3 71.3154C134.018 71.215 133.73 71.1336 133.437 71.0718C132.839 70.9549 132.23 70.9059 131.62 70.9257C130.266 70.9799 128.932 71.2718 127.679 71.788C127.615 71.8172 127.679 71.9536 127.732 71.9439C128.994 71.6421 130.275 71.4272 131.567 71.3008C132.121 71.2755 132.677 71.3114 133.223 71.408C133.506 71.4593 133.785 71.5326 134.056 71.6272C134.334 71.7419 134.619 71.8379 134.909 71.9147C135.006 71.9342 135.094 71.8367 135.026 71.749Z" fill="#9A4A4D"/>
<path d="M133.588 75.5199C133.217 75.3327 132.822 75.1982 132.414 75.1204C131.99 75.023 131.566 74.9402 131.138 74.8768C130.679 74.8103 130.217 74.7729 129.754 74.7648C129.286 74.7208 128.814 74.7404 128.351 74.8232C128.283 74.8232 128.351 74.9499 128.385 74.9597C128.872 75.0279 129.359 74.9938 129.813 75.0327C130.266 75.0717 130.636 75.1204 131.05 75.1789C131.464 75.2374 131.898 75.3202 132.312 75.4176C132.733 75.5387 133.161 75.6363 133.593 75.7099C133.71 75.7197 133.647 75.554 133.588 75.5199Z" fill="#9A4A4D"/>
<path d="M134.758 77.951C134.53 77.9177 134.298 77.931 134.075 77.99C133.822 78.0323 133.567 78.0599 133.311 78.0728C132.798 78.1003 132.283 78.0742 131.776 77.9948C130.741 77.8027 129.75 77.4212 128.853 76.8694C128.809 76.8451 128.809 76.9279 128.828 76.9522C129.565 77.6238 130.463 78.0922 131.435 78.3115C131.991 78.4508 132.562 78.5179 133.135 78.5113C133.43 78.5067 133.725 78.4823 134.017 78.4382C134.27 78.3992 134.714 78.3651 134.855 78.1313C134.913 78.0436 134.821 77.9656 134.758 77.951Z" fill="#9A4A4D"/>
<path d="M132.156 80.3382C131.888 80.2749 131.596 80.2749 131.323 80.231C130.994 80.1776 130.668 80.1044 130.348 80.0118C130.05 79.9155 129.757 79.8016 129.471 79.6708C129.174 79.5344 128.892 79.3687 128.585 79.242C128.512 79.2128 128.531 79.3346 128.56 79.3638C129.032 79.7856 129.593 80.0939 130.202 80.2651C130.511 80.3692 130.827 80.4491 131.147 80.5039C131.32 80.5365 131.494 80.5593 131.669 80.5721C131.853 80.5986 132.04 80.5986 132.224 80.5721C132.365 80.5282 132.219 80.3577 132.156 80.3382Z" fill="#9A4A4D"/>
<path d="M135.191 79.0179C134.78 79.1163 134.364 79.1927 133.944 79.2469C133.749 79.273 133.552 79.2893 133.355 79.2956C133.165 79.2956 132.96 79.2956 132.77 79.32C132.692 79.32 132.731 79.4564 132.77 79.471C133.179 79.549 133.599 79.549 134.008 79.471C134.419 79.4112 134.818 79.2827 135.187 79.091C135.187 79.091 135.221 79.0179 135.191 79.0179Z" fill="#9A4A4D"/>
<path d="M111.816 35.8234C114.008 36.7978 114.671 37.8306 114.632 41.4505C114.593 45.0703 114.544 48.6171 114.534 51.8764C114.524 55.1357 114.466 59.233 114.315 61.1331C114.189 65.2051 114.289 69.281 114.612 73.3421C114.948 76.5235 115.284 81.0983 115.689 84.9666C116.093 88.8349 116.502 96.7615 116.79 98.8272C117.077 100.893 117.56 102.169 118.51 103.256C117.301 97.0246 117.399 93.2976 117.116 87.919C116.834 82.5404 115.889 74.8183 115.567 71.7782C115.246 68.7382 115.567 62.9649 115.713 59.1453C115.859 55.3257 115.777 44.3687 115.567 41.0363C115.358 37.7039 114.685 36.4665 111.816 35.8234Z" fill="#9A4A4D"/>
<path d="M123.221 48.5537C122.982 48.559 122.745 48.6018 122.52 48.6804C122.266 48.7486 122.032 48.8071 121.76 48.8606C121.293 48.9546 120.821 49.0245 120.347 49.0701C119.86 49.114 119.372 49.1286 118.885 49.1286C118.402 49.1729 117.916 49.0764 117.487 48.8509C117.399 48.7973 117.394 48.9581 117.453 48.9971C117.785 49.2244 118.172 49.359 118.573 49.3868C119.123 49.446 119.678 49.4591 120.23 49.4258C120.779 49.3942 121.326 49.3259 121.867 49.2212C122.13 49.1676 122.393 49.1091 122.651 49.0409C122.896 49.0051 123.129 48.9097 123.328 48.7632C123.392 48.6901 123.28 48.5586 123.221 48.5537Z" fill="#9A4A4D"/>
<path d="M121.33 50.7267C121.005 50.7185 120.679 50.7348 120.356 50.7754C120.048 50.7924 119.739 50.7924 119.43 50.7754C119.313 50.7754 119.382 50.9605 119.469 50.9703C119.781 51.005 120.096 51.0181 120.41 51.0092C120.566 51.0092 120.717 51.0092 120.868 50.9849C121.037 50.9808 121.203 50.9392 121.355 50.8631C121.408 50.8192 121.369 50.7315 121.33 50.7267Z" fill="#9A4A4D"/>
<path d="M121.35 69.7613C120.928 69.7101 120.501 69.7101 120.079 69.7613C119.723 69.7613 119.367 69.8149 119.012 69.8538C118.656 69.8928 118.266 69.9513 117.896 70.0146C117.513 70.0632 117.134 70.1464 116.766 70.2631C116.693 70.2923 116.766 70.4287 116.834 70.4239C117.233 70.4239 117.633 70.3167 118.028 70.2631C118.422 70.2095 118.773 70.1754 119.148 70.1364C119.523 70.0974 119.874 70.078 120.239 70.0585C120.634 70.0618 121.029 70.0308 121.418 69.9659C121.53 69.9074 121.418 69.7613 121.35 69.7613Z" fill="#9A4A4D"/>
<path d="M125.267 67.9099C124.926 67.5589 124.46 67.3573 123.971 67.3496C123.472 67.2985 122.97 67.2985 122.471 67.3496C121.867 67.4081 121.262 67.4861 120.663 67.5835C120.044 67.6663 119.437 67.8301 118.861 68.0707C118.802 68.095 118.861 68.2071 118.904 68.1974C119.46 68.0999 120.015 67.9976 120.58 67.9343C121.145 67.8709 121.667 67.8417 122.208 67.7979C122.682 67.7492 123.159 67.7345 123.635 67.754C124.146 67.814 124.651 67.9167 125.145 68.0609C125.165 68.0684 125.187 68.0694 125.208 68.0637C125.229 68.058 125.247 68.0459 125.261 68.0292C125.274 68.0126 125.282 67.9921 125.283 67.9706C125.284 67.9492 125.279 67.928 125.267 67.9099Z" fill="#9A4A4D"/>
<path d="M119.733 72.7526C119.313 72.601 118.885 72.4741 118.451 72.3726C118.208 72.2947 117.964 72.2167 117.721 72.129C117.477 72.0413 117.321 71.9682 117.112 71.9098C116.99 71.8708 117.019 72.0462 117.112 72.09C117.526 72.3091 117.962 72.4838 118.412 72.6113C118.636 72.6844 118.861 72.7526 119.085 72.8111C119.31 72.8842 119.545 72.9236 119.781 72.928C119.854 72.9231 119.781 72.7721 119.733 72.7526Z" fill="#9A4A4D"/>
<path d="M125.706 73.537C125.36 73.5904 125.019 73.6735 124.687 73.7855C124.361 73.878 124.039 73.956 123.713 74.0291C123.048 74.1839 122.372 74.2833 121.691 74.3263C120.365 74.4192 119.041 74.1174 117.886 73.459C117.754 73.3811 117.667 73.5419 117.779 73.6344C118.854 74.4601 120.193 74.8654 121.545 74.7745C122.265 74.7519 122.981 74.6506 123.679 74.4724C124.034 74.3847 124.39 74.2775 124.741 74.1704C125.122 74.078 125.492 73.9423 125.842 73.766C125.969 73.688 125.808 73.5273 125.706 73.537Z" fill="#9A4A4D"/>
<path d="M124.449 71.7101C123.691 71.5338 122.91 71.4763 122.134 71.5395C121.735 71.5395 121.335 71.5785 120.941 71.6175C120.531 71.6384 120.124 71.6938 119.723 71.7831C119.567 71.827 119.723 72.0219 119.82 72.017C120.239 72.017 120.653 71.9488 121.072 71.9244C121.491 71.9001 121.867 71.8903 122.261 71.8855C122.656 71.8806 123.016 71.8855 123.391 71.8855C123.758 71.9196 124.126 71.9196 124.492 71.8855C124.6 71.9001 124.507 71.7393 124.449 71.7101Z" fill="#9A4A4D"/>
<path d="M115.426 55.1454C115.173 55.0626 114.817 55.2916 114.583 55.3793C114.349 55.467 113.969 55.5937 113.662 55.6862C112.99 55.8783 112.304 56.02 111.611 56.1101C110.134 56.3084 108.635 56.2771 107.168 56.0175C107.051 55.9932 107.119 56.1832 107.202 56.2026C108.589 56.5631 110.028 56.6801 111.455 56.5486C112.154 56.4801 112.847 56.3546 113.526 56.1734C113.872 56.0809 114.208 55.9785 114.544 55.8616L115.031 55.6765C115.219 55.6194 115.388 55.5115 115.518 55.3647C115.587 55.2526 115.475 55.1454 115.426 55.1454Z" fill="#9A4A4D"/>
<path d="M113.828 57.4304C113.102 57.6411 112.363 57.8039 111.616 57.9176C111.265 57.9566 110.915 57.9761 110.569 58.0004C110.158 58.0012 109.747 58.0338 109.341 58.0979C109.239 58.0979 109.341 58.283 109.399 58.2976C110.143 58.3975 110.897 58.3975 111.64 58.2976C112.054 58.2604 112.464 58.1936 112.868 58.0979C113.263 58.0223 113.64 57.8772 113.984 57.6691C114.106 57.5814 113.964 57.4012 113.828 57.4304Z" fill="#9A4A4D"/>
<path d="M115.124 75.8122C114.848 75.7208 114.557 75.6795 114.266 75.6904C113.969 75.6904 113.677 75.6904 113.385 75.6904C112.771 75.6904 112.157 75.7489 111.548 75.8171C110.94 75.8817 110.337 75.981 109.74 76.1143C109.253 76.2312 108.503 76.3384 108.162 76.772C108.084 76.8695 108.23 77.0254 108.337 76.9718C108.848 76.7269 109.394 76.5626 109.955 76.4846C110.53 76.3839 111.105 76.3011 111.679 76.2361C112.23 76.1776 112.776 76.1387 113.326 76.1192C113.945 76.1567 114.567 76.1355 115.182 76.0558C115.338 76.0315 115.202 75.8415 115.124 75.8122Z" fill="#9A4A4D"/>
<path d="M115.134 74.3799C114.786 74.108 114.357 73.962 113.916 73.9658C113.485 73.9293 113.052 73.944 112.625 74.0097C112.167 74.073 111.714 74.1704 111.256 74.2679C110.72 74.3449 110.193 74.4721 109.682 74.6479C109.599 74.682 109.682 74.8135 109.75 74.8135C110.28 74.7765 110.806 74.6984 111.324 74.5797C111.718 74.5066 112.118 74.4384 112.517 74.3897C112.93 74.3305 113.348 74.3126 113.765 74.3361C114.177 74.3949 114.586 74.4812 114.987 74.5943C115.114 74.6333 115.251 74.4871 115.134 74.3799Z" fill="#9A4A4D"/>
<path d="M109.092 79.3882C108.907 79.3151 108.717 79.2615 108.537 79.1738C108.357 79.0861 108.259 79.0276 108.128 78.9448C107.868 78.7805 107.644 78.565 107.47 78.3115C107.109 77.7673 106.949 77.1144 107.017 76.465C107.017 76.426 106.963 76.3481 106.939 76.4114C106.789 76.7888 106.747 77.2003 106.817 77.6002C106.889 77.9833 107.056 78.342 107.304 78.6427C107.516 78.9155 107.782 79.1426 108.084 79.3102C108.237 79.3957 108.401 79.4596 108.571 79.5002C108.75 79.5575 108.94 79.5741 109.126 79.5489C109.219 79.5294 109.156 79.4076 109.092 79.3882Z" fill="#9A4A4D"/>
<path d="M114.257 79.7682C113.924 79.8956 113.598 80.042 113.282 80.2066C112.975 80.327 112.657 80.4183 112.332 80.4795C111.984 80.5437 111.629 80.5714 111.275 80.5623C110.866 80.5623 110.481 80.4746 110.081 80.4259C109.945 80.4259 109.969 80.5915 110.057 80.6354C110.425 80.7961 110.82 80.8838 111.221 80.8936C111.609 80.9156 111.998 80.896 112.381 80.8351C112.755 80.7763 113.121 80.675 113.472 80.5331C113.64 80.4713 113.803 80.3963 113.959 80.3089C114.152 80.2381 114.32 80.1149 114.447 79.9533C114.5 79.8607 114.344 79.7438 114.257 79.7682Z" fill="#9A4A4D"/>
<path d="M113.35 82.1554C112.693 82.2334 112.04 82.3795 111.377 82.4137C110.814 82.4414 110.249 82.4104 109.692 82.3211C108.488 82.1247 107.337 81.6836 106.31 81.0251C106.281 81.0251 106.276 81.0641 106.31 81.0787C107.317 81.9148 108.531 82.465 109.823 82.6719C110.467 82.7765 111.121 82.8027 111.772 82.7498C112.092 82.7277 112.41 82.6788 112.722 82.6037C112.969 82.5481 113.205 82.4544 113.423 82.326C113.477 82.2821 113.423 82.1457 113.35 82.1554Z" fill="#9A4A4D"/>
<path d="M105.317 109.658C105.726 105.112 104.761 101.536 103.626 95.3682C102.633 90.1557 102.081 84.8688 101.974 79.5636C101.867 74.794 101.789 69.3082 102.199 64.7773C102.608 60.2464 103.173 58.0687 102.973 54.2734C102.695 50.3641 102.913 46.4354 103.621 42.5808C104.43 38.3178 106.023 36.6468 107.416 36.0037C105.521 36.6857 104.089 38.2058 103.348 40.4323C102.236 44.0845 101.489 47.838 101.117 51.6377C100.99 53.6157 101.263 56.8604 101.21 57.0943C100.878 58.5169 99.9818 65.9953 99.7479 69.62C99.56 72.0808 99.5291 74.551 99.6554 77.0156C99.7382 78.7305 98.8223 82.8083 98.6079 88.1041C99.6164 93.6143 100.376 97.1172 102.257 100.986C103.567 103.765 104.592 106.671 105.317 109.658Z" fill="#9A4A4D"/>
<path d="M95.8845 152.389C93.7604 144.443 92.6301 123.533 91.8408 115.972C91.2075 109.916 89.0687 104.05 87.992 99.407C86.9153 94.7641 86.1212 90.4963 86.2673 85.1566C86.4135 79.817 86.6132 78.3359 85.9555 74.2922C85.2978 70.2485 85.0493 63.3742 87.3392 61.2062C85.824 62.546 84.6157 64.8163 84.2942 68.2169C83.6803 74.7063 84.4257 77.0254 84.5914 79.7634C83.9191 83.4319 84.2893 90.0578 84.8398 93.1953C84.7473 101.56 86.8666 113.355 87.4951 115.991C88.1235 118.627 88.2599 125.014 90.1697 138.168C92.6837 155.493 95.0417 159.025 98.452 164.603C101.862 170.182 104.62 171.112 109.502 180.062C110.687 182.343 111.636 184.739 112.332 187.214C112.332 187.214 110.788 179.214 107.46 173.046C104.133 166.878 98.0038 160.335 95.8845 152.389Z" fill="#9A4A4D"/>
<path d="M91.5533 77.8779C92.3523 77.7805 93.1513 77.7074 93.9503 77.6197L95.105 77.5076C95.4665 77.5065 95.8265 77.4607 96.1768 77.3712C96.3229 77.3176 96.206 77.1422 96.0988 77.1179C95.7233 77.0922 95.346 77.1201 94.9783 77.2007L93.7408 77.3517C92.9808 77.4492 92.2208 77.5661 91.4559 77.683C91.3584 77.6976 91.4656 77.8925 91.5533 77.8779Z" fill="#9A4A4D"/>
<path d="M89.6533 79.1739C91.0905 79.3791 92.5437 79.4508 93.9942 79.3882C94.6896 79.3506 95.3806 79.2545 96.0599 79.1008C96.3571 79.0326 96.6494 78.9546 96.9417 78.8621C96.9417 78.711 96.9076 78.5551 96.8979 78.3749C96.5625 78.4899 96.2209 78.5859 95.8747 78.6623C95.2323 78.8006 94.5812 78.895 93.926 78.9449C92.4936 79.057 91.0613 78.9936 89.6289 78.9887C89.5412 79.018 89.6046 79.1641 89.6533 79.1739Z" fill="#9A4A4D"/>
<path d="M94.6957 80.7328C94.4765 80.7767 94.2572 80.8108 94.038 80.8449C93.5752 80.918 93.1075 80.9569 92.6495 81.03C92.5521 81.03 92.6251 81.2103 92.6982 81.2103C93.1876 81.2105 93.6762 81.173 94.1598 81.0982C94.3937 81.0641 94.647 81.0251 94.8565 80.9813C95.0697 80.962 95.2777 80.9042 95.4703 80.8108C95.5337 80.7718 95.4704 80.6403 95.407 80.6403C95.1671 80.6428 94.9283 80.6739 94.6957 80.7328Z" fill="#9A4A4D"/>
<path d="M100.182 94.2378C99.8367 94.4153 99.5032 94.6138 99.1828 94.8322C98.8777 95.0014 98.5638 95.1543 98.2425 95.2901C97.5073 95.5952 96.7387 95.8127 95.9527 95.9381C94.4137 96.1885 92.8386 96.097 91.339 95.6701C91.2464 95.6458 91.2854 95.8017 91.339 95.8261C92.8385 96.4082 94.464 96.5896 96.055 96.3522C96.8401 96.2352 97.6087 96.0258 98.3448 95.7286C98.7088 95.5888 99.0635 95.4261 99.4069 95.2414C99.786 95.0676 100.135 94.834 100.44 94.5496C100.591 94.3693 100.347 94.1696 100.182 94.2378Z" fill="#9A4A4D"/>
<path d="M93.6143 94.574C93.5034 94.5209 93.3852 94.4847 93.2635 94.4668C93.2096 94.4487 93.1542 94.4357 93.0979 94.4279C92.9874 94.4051 92.8754 94.3759 92.7617 94.3402C92.5453 94.2741 92.3388 94.179 92.1478 94.0576C91.9605 93.9417 91.7955 93.7932 91.6606 93.6191C91.5281 93.4531 91.4333 93.2603 91.3829 93.054C91.3754 93.0146 91.356 92.9785 91.3272 92.9506C91.2984 92.9227 91.2617 92.9044 91.2222 92.8981C91.1588 92.8981 91.076 92.9273 91.0857 93.0053C91.1057 93.2787 91.1964 93.5423 91.3488 93.7701C91.51 94.0013 91.7154 94.1983 91.953 94.3499C92.1882 94.4991 92.4443 94.6124 92.713 94.6861C92.8394 94.7254 92.9679 94.7579 93.0979 94.7835C93.2593 94.8086 93.4236 94.8086 93.5851 94.7835C93.7215 94.7835 93.7117 94.6373 93.6143 94.574Z" fill="#9A4A4D"/>
<path d="M99.4653 91.5876C99.1145 91.7824 98.793 92.0114 98.4276 92.1819C98.0368 92.3688 97.6349 92.5315 97.2242 92.6691C96.7462 92.8226 96.2577 92.9415 95.7626 93.0248C95.2998 93.0979 94.8272 93.1076 94.3595 93.1807C94.2669 93.1807 94.3595 93.3463 94.4034 93.3561C94.8903 93.4043 95.3813 93.3912 95.8649 93.3171C96.3776 93.2566 96.8844 93.154 97.3801 93.0102C97.8626 92.8729 98.3321 92.6936 98.7832 92.4742C98.981 92.3922 99.1703 92.291 99.3484 92.1722C99.4215 92.1247 99.4845 92.0632 99.5338 91.9913C99.5832 91.9194 99.6178 91.8385 99.6358 91.7532C99.6407 91.6509 99.5432 91.5388 99.4653 91.5876Z" fill="#9A4A4D"/>
<path d="M98.8905 90.5352C98.6002 90.424 98.2844 90.397 97.9794 90.4572C97.7164 90.4572 97.4533 90.5108 97.1951 90.5449C96.6239 90.6262 96.0591 90.7467 95.5045 90.9055C94.4888 91.1714 93.5207 91.5938 92.6349 92.1576C92.5424 92.216 92.6788 92.3865 92.7665 92.3524C93.6956 91.9058 94.6624 91.5423 95.6555 91.266C96.1697 91.1398 96.69 91.0406 97.2145 90.9688C97.4679 90.9347 97.7017 90.9103 97.9697 90.8957C98.2719 90.8994 98.5733 90.8634 98.8661 90.7885C98.8927 90.7811 98.9163 90.7659 98.934 90.7447C98.9517 90.7236 98.9625 90.6976 98.9652 90.6702C98.9678 90.6428 98.9621 90.6152 98.9488 90.5911C98.9354 90.567 98.9151 90.5475 98.8905 90.5352Z" fill="#9A4A4D"/>
<path d="M96.9124 88.6887C96.4832 88.6612 96.0523 88.7023 95.636 88.8105C95.1569 88.9075 94.6836 89.0311 94.2183 89.1807C93.2804 89.4581 92.3925 89.8824 91.5874 90.4377C91.5095 90.4962 91.6166 90.6618 91.6946 90.6228C92.533 90.2113 93.3953 89.8501 94.2767 89.5413C94.701 89.4044 95.1319 89.2889 95.5678 89.1954C96.0519 89.1315 96.5306 89.0322 97.0001 88.8982C97.1365 88.8543 97.005 88.6984 96.9124 88.6887Z" fill="#9A4A4D"/>
<path d="M145.685 121.584C145.374 112.673 144.443 110.408 143.361 106.583C142.28 102.759 141.505 99.938 141.968 95.8261C142.391 92.3442 144.135 89.1578 146.84 86.925C146.225 87.2656 145.656 87.6849 145.149 88.1723C143.495 89.646 142.167 91.45 141.252 93.4681C140.389 95.277 139.795 97.2023 139.488 99.1828C141.057 107.153 141.676 108.664 143.069 112.215C144.463 115.767 145.529 119.967 145.685 121.584Z" fill="#9A4A4D"/>
<path d="M153.49 98.6859C151.235 100.328 147.814 99.0025 147.814 99.0025C147.814 99.0025 147.975 94.8176 148.925 92.099C149.875 89.3805 152.857 87.5291 153.973 88.0748C155.249 88.6984 154.582 91.758 154.138 94.6519C153.773 97.044 153.49 98.6859 153.49 98.6859Z" fill="#B16668"/>
<path opacity="0.2" d="M153.49 98.6859C151.235 100.328 147.814 99.0025 147.814 99.0025C147.814 99.0025 147.975 94.8176 148.925 92.099C149.875 89.3805 152.857 87.5291 153.973 88.0748C155.249 88.6984 154.582 91.758 154.138 94.6519C153.773 97.044 153.49 98.6859 153.49 98.6859Z" fill="white"/>
<path opacity="0.3" d="M147.878 97.9648C147.829 98.5981 147.814 99.0025 147.814 99.0025C147.814 99.0025 151.225 100.328 153.49 98.6858C153.49 98.6858 153.627 97.9063 153.831 96.6299C151.814 96.9123 149.823 97.3587 147.878 97.9648Z" fill="white"/>
<path d="M126.412 49.5329C128.361 51.3404 132.941 49.8447 132.468 48.0713C132.468 48.0713 131.981 44.5148 131.274 41.4163C130.329 37.3726 125.657 39.18 125.784 43.1409C125.845 45.2836 126.055 47.4194 126.412 49.5329Z" fill="#B16668"/>
<path opacity="0.2" d="M126.412 49.5329C128.361 51.3404 132.941 49.8447 132.468 48.0713C132.468 48.0713 131.981 44.5148 131.274 41.4163C130.329 37.3726 125.657 39.18 125.784 43.1409C125.845 45.2836 126.055 47.4194 126.412 49.5329Z" fill="white"/>
<path opacity="0.3" d="M132.478 48.0811C132.478 48.0811 132.478 48.0177 132.478 47.9057C131.425 47.1359 128.176 47.9057 126.339 48.9288C126.397 49.3137 126.441 49.5329 126.441 49.5329C128.361 51.3404 132.935 49.8447 132.478 48.0811Z" fill="white"/>
<path d="M88.9858 68.8355C90.7543 70.8184 95.4558 69.7612 95.1537 67.9635C95.1076 66.0369 94.9547 64.1144 94.6957 62.2048C94.1403 58.0881 89.1612 59.4571 88.9128 63.4179C88.7504 65.2215 88.7748 67.037 88.9858 68.8355Z" fill="#B16668"/>
<path opacity="0.2" d="M88.9858 68.8355C90.7543 70.8184 95.4558 69.7612 95.1537 67.9635C95.1076 66.0369 94.9547 64.1144 94.6957 62.2048C94.1403 58.0881 89.1612 59.4571 88.9128 63.4179C88.7504 65.2215 88.7748 67.037 88.9858 68.8355Z" fill="white"/>
<path opacity="0.3" d="M95.1536 67.9634C95.1536 67.9634 95.1536 67.9001 95.1536 67.788C94.1792 66.9257 90.8712 67.3837 88.9468 68.2265C88.9711 68.6114 88.9906 68.8355 88.9906 68.8355C90.7543 70.8184 95.4508 69.7612 95.1536 67.9634Z" fill="white"/>
<path d="M116.6 38.2057C118.549 40.247 124.03 39.3408 123.747 37.5285C123.747 37.5285 123.723 33.9427 123.343 30.776C122.856 26.6446 117.228 27.8528 116.805 31.7942C116.566 33.9226 116.498 36.0665 116.6 38.2057Z" fill="#B16668"/>
<path opacity="0.2" d="M116.6 38.2057C118.549 40.247 124.03 39.3408 123.747 37.5285C123.747 37.5285 123.723 33.9427 123.343 30.776C122.856 26.6446 117.228 27.8528 116.805 31.7942C116.566 33.9226 116.498 36.0665 116.6 38.2057Z" fill="white"/>
<path opacity="0.3" d="M123.747 37.5285V37.3531C122.656 36.4615 118.817 36.8123 116.571 37.5967C116.571 37.9864 116.6 38.2057 116.6 38.2057C118.568 40.247 124.03 39.3408 123.747 37.5285Z" fill="white"/>
<path d="M106.734 45.0702C108.527 47.2674 114.042 46.8289 113.92 45.002C113.92 45.002 114.198 41.426 114.086 38.2397C113.945 34.0791 108.24 34.8001 107.485 38.7025C107.068 40.8021 106.817 42.9312 106.734 45.0702Z" fill="#B16668"/>
<path opacity="0.2" d="M106.734 45.0702C108.527 47.2674 114.042 46.8289 113.92 45.002C113.92 45.002 114.198 41.426 114.086 38.2397C113.945 34.0791 108.24 34.8001 107.485 38.7025C107.068 40.8021 106.817 42.9312 106.734 45.0702Z" fill="white"/>
<path opacity="0.3" d="M113.92 45.0021C113.92 45.0021 113.92 44.9387 113.92 44.8267C112.912 43.8523 109.049 43.8523 106.749 44.4613C106.749 44.851 106.725 45.0703 106.725 45.0703C108.527 47.2675 114.047 46.829 113.92 45.0021Z" fill="white"/>
<path d="M104.708 18.2455C104.514 18.2455 104.328 18.1685 104.191 18.0314C104.054 17.8944 103.977 17.7085 103.977 17.5147V2.28987C103.977 2.09605 104.054 1.91018 104.191 1.77313C104.328 1.63608 104.514 1.55908 104.708 1.55908C104.901 1.55908 105.087 1.63608 105.224 1.77313C105.361 1.91018 105.438 2.09605 105.438 2.28987V17.5147C105.438 17.7085 105.361 17.8944 105.224 18.0314C105.087 18.1685 104.901 18.2455 104.708 18.2455Z" fill="#BA68C8"/>
<path d="M54.0737 36.9293C53.9671 36.9294 53.8619 36.9064 53.7651 36.8618C53.6684 36.8172 53.5825 36.7522 53.5134 36.6711L44.1203 25.5339C44.0582 25.4606 44.0112 25.3759 43.9819 25.2844C43.9526 25.193 43.9416 25.0967 43.9495 25.001C43.9574 24.9053 43.9841 24.8121 44.028 24.7268C44.072 24.6414 44.1323 24.5655 44.2055 24.5035C44.2788 24.4414 44.3636 24.3944 44.455 24.3651C44.5464 24.3358 44.6427 24.3248 44.7384 24.3327C44.8341 24.3406 44.9273 24.3673 45.0127 24.4112C45.098 24.4552 45.1739 24.5155 45.236 24.5887L54.6291 35.726C54.6914 35.7994 54.7386 35.8845 54.7679 35.9762C54.7973 36.068 54.8082 36.1646 54.8 36.2606C54.7919 36.3566 54.7648 36.4501 54.7204 36.5356C54.676 36.6211 54.6152 36.6969 54.5414 36.7588C54.41 36.8683 54.2446 36.9286 54.0737 36.9293Z" fill="#BA68C8"/>
<path d="M20.2039 93.4877C20.1651 93.4924 20.1258 93.4924 20.087 93.4877L4.4968 91.0078C4.40083 90.9928 4.30876 90.959 4.22585 90.9084C4.14294 90.8578 4.07081 90.7913 4.01358 90.7128C3.95635 90.6344 3.91515 90.5454 3.89231 90.4509C3.86948 90.3565 3.86546 90.2585 3.8805 90.1626C3.89553 90.0666 3.92932 89.9745 3.97994 89.8916C4.03055 89.8087 4.09701 89.7366 4.1755 89.6794C4.25399 89.6221 4.34298 89.5809 4.4374 89.5581C4.53182 89.5352 4.62981 89.5312 4.72578 89.5463L20.316 92.031C20.5098 92.0458 20.6898 92.1371 20.8163 92.2846C20.9429 92.4322 21.0056 92.624 20.9907 92.8178C20.9759 93.0116 20.8846 93.1916 20.7371 93.3181C20.5895 93.4447 20.3977 93.5074 20.2039 93.4925V93.4877Z" fill="#BA68C8"/>
<path d="M21.4852 167.448C21.3249 167.449 21.1689 167.397 21.0412 167.3C20.9135 167.203 20.8212 167.067 20.7785 166.912C20.7359 166.757 20.7452 166.593 20.8051 166.445C20.8651 166.296 20.9722 166.171 21.1101 166.089L33.7771 158.591C33.9436 158.496 34.1407 158.471 34.3259 158.52C34.5112 158.569 34.6698 158.689 34.7675 158.853C34.8652 159.018 34.8943 159.215 34.8485 159.401C34.8027 159.587 34.6856 159.748 34.5225 159.848L21.8555 167.351C21.743 167.416 21.6151 167.45 21.4852 167.448Z" fill="#BA68C8"/>
<path d="M154.806 37.5627C154.666 37.5645 154.529 37.526 154.41 37.4517C154.292 37.3775 154.198 37.2708 154.139 37.1442C154.079 37.0177 154.058 36.8769 154.077 36.7385C154.096 36.6002 154.154 36.4702 154.245 36.3642L164.179 24.5887C164.241 24.5155 164.317 24.4552 164.402 24.4112C164.488 24.3673 164.581 24.3406 164.677 24.3327C164.772 24.3248 164.869 24.3358 164.96 24.3651C165.052 24.3944 165.136 24.4414 165.21 24.5035C165.283 24.5655 165.343 24.6414 165.387 24.7268C165.431 24.8121 165.458 24.9053 165.466 25.001C165.474 25.0967 165.462 25.193 165.433 25.2844C165.404 25.3759 165.357 25.4606 165.295 25.5339L155.376 37.3045C155.305 37.3868 155.218 37.4526 155.119 37.4972C155.021 37.5418 154.914 37.5642 154.806 37.5627Z" fill="#BA68C8"/>
<path d="M190.186 93.3318C189.992 93.3466 189.8 93.2839 189.653 93.1573C189.505 93.0308 189.414 92.8508 189.399 92.657C189.384 92.4632 189.447 92.2714 189.574 92.1238C189.7 91.9763 189.88 91.885 190.074 91.8702L204.69 89.5414C204.884 89.511 205.081 89.5589 205.24 89.6745C205.398 89.7901 205.505 89.9639 205.535 90.1577C205.565 90.3515 205.517 90.5494 205.402 90.708C205.286 90.8665 205.112 90.9726 204.919 91.003L190.303 93.3318H190.186Z" fill="#BA68C8"/>
<path d="M187.93 167.449C187.8 167.45 187.672 167.416 187.56 167.351L175.302 160.087C175.141 159.99 175.025 159.834 174.976 159.652C174.928 159.47 174.952 159.277 175.044 159.113C175.143 158.946 175.305 158.825 175.493 158.777C175.681 158.729 175.88 158.756 176.048 158.854L188.305 166.114C188.443 166.195 188.55 166.32 188.61 166.469C188.67 166.618 188.68 166.782 188.637 166.937C188.594 167.091 188.502 167.227 188.374 167.324C188.247 167.421 188.091 167.473 187.93 167.473V167.449Z" fill="#BA68C8"/>
<path d="M212.636 149.466L210.015 149.179C209.879 149.164 209.752 149.102 209.656 149.004C209.56 148.907 209.501 148.779 209.488 148.643L209.186 145.291C209.186 145.259 209.173 145.228 209.151 145.205C209.128 145.182 209.097 145.169 209.065 145.169C209.032 145.169 209.001 145.182 208.978 145.205C208.956 145.228 208.943 145.259 208.943 145.291L208.641 148.643C208.628 148.779 208.569 148.907 208.473 149.004C208.377 149.102 208.25 149.164 208.114 149.179L205.493 149.466C205.461 149.466 205.43 149.479 205.407 149.502C205.384 149.525 205.372 149.556 205.372 149.588C205.372 149.62 205.384 149.651 205.407 149.674C205.43 149.697 205.461 149.71 205.493 149.71L208.114 149.997C208.251 150.011 208.378 150.073 208.474 150.17C208.57 150.268 208.629 150.396 208.641 150.533L208.943 153.885C208.943 153.917 208.956 153.948 208.978 153.971C209.001 153.994 209.032 154.007 209.065 154.007C209.097 154.007 209.128 153.994 209.151 153.971C209.173 153.948 209.186 153.917 209.186 153.885L209.488 150.533C209.501 150.397 209.56 150.269 209.656 150.171C209.752 150.074 209.879 150.012 210.015 149.997L212.636 149.71C212.668 149.71 212.699 149.697 212.722 149.674C212.745 149.651 212.757 149.62 212.757 149.588C212.757 149.556 212.745 149.525 212.722 149.502C212.699 149.479 212.668 149.466 212.636 149.466ZM209.985 149.758C209.794 149.78 209.616 149.867 209.481 150.004C209.346 150.142 209.263 150.322 209.245 150.514L209.065 152.526L208.884 150.514C208.866 150.322 208.783 150.142 208.648 150.004C208.513 149.867 208.335 149.78 208.144 149.758L206.604 149.588L208.144 149.417C208.335 149.396 208.513 149.309 208.648 149.171C208.783 149.034 208.866 148.854 208.884 148.662L209.065 146.65L209.245 148.662C209.263 148.854 209.346 149.034 209.481 149.171C209.616 149.309 209.794 149.396 209.985 149.417L211.525 149.588L209.985 149.758ZM196.734 131.362L192.018 130.841C191.771 130.813 191.543 130.701 191.37 130.523C191.198 130.345 191.092 130.113 191.072 129.866L190.532 123.849C190.524 123.798 190.498 123.75 190.458 123.716C190.418 123.682 190.367 123.663 190.315 123.663C190.262 123.663 190.212 123.682 190.172 123.716C190.132 123.75 190.106 123.798 190.098 123.849L189.557 129.866C189.538 130.113 189.433 130.346 189.261 130.524C189.088 130.702 188.859 130.814 188.612 130.841L183.896 131.362C183.842 131.368 183.793 131.394 183.757 131.434C183.721 131.475 183.701 131.527 183.701 131.581C183.701 131.635 183.721 131.687 183.757 131.726C183.793 131.766 183.843 131.791 183.896 131.796L188.612 132.317C188.858 132.344 189.087 132.457 189.26 132.634C189.432 132.812 189.537 133.044 189.557 133.291L190.098 139.308C190.106 139.36 190.132 139.407 190.172 139.442C190.212 139.476 190.262 139.495 190.315 139.495C190.367 139.495 190.418 139.476 190.458 139.442C190.498 139.407 190.524 139.36 190.532 139.308L191.072 133.291C191.093 133.045 191.199 132.813 191.371 132.635C191.543 132.458 191.772 132.345 192.018 132.317L196.734 131.796C196.787 131.791 196.837 131.766 196.873 131.726C196.909 131.687 196.929 131.635 196.929 131.581C196.929 131.527 196.909 131.475 196.873 131.434C196.837 131.394 196.787 131.368 196.734 131.362ZM191.969 131.883C191.625 131.924 191.306 132.081 191.064 132.328C190.822 132.576 190.672 132.898 190.639 133.243L190.317 136.858L189.991 133.243C189.959 132.898 189.809 132.575 189.567 132.327C189.325 132.08 189.005 131.923 188.661 131.883L185.898 131.581L188.661 131.274C189.005 131.235 189.325 131.079 189.568 130.831C189.81 130.584 189.959 130.26 189.991 129.915L190.317 126.3L190.639 129.915C190.671 130.26 190.821 130.583 191.063 130.83C191.305 131.078 191.625 131.234 191.969 131.274L194.731 131.581L191.969 131.883ZM213.776 37.1777L208.607 36.6321C208.339 36.6017 208.09 36.48 207.902 36.2874C207.714 36.0947 207.598 35.8431 207.574 35.5749L206.979 28.9831C206.979 28.9185 206.954 28.8566 206.908 28.8109C206.862 28.7652 206.8 28.7395 206.736 28.7395C206.671 28.7395 206.609 28.7652 206.563 28.8109C206.518 28.8566 206.492 28.9185 206.492 28.9831L205.898 35.5749C205.874 35.8416 205.76 36.0921 205.573 36.2845C205.387 36.477 205.14 36.5997 204.875 36.6321L199.71 37.1777C199.652 37.1848 199.598 37.2129 199.558 37.2568C199.519 37.3007 199.497 37.3575 199.496 37.4165C199.496 37.4753 199.518 37.532 199.557 37.5753C199.597 37.6186 199.652 37.6454 199.71 37.6503L204.88 38.2252C205.147 38.2547 205.397 38.3761 205.585 38.5689C205.774 38.7617 205.889 39.0139 205.912 39.2824L206.502 45.8888C206.502 45.9534 206.528 46.0153 206.573 46.061C206.619 46.1067 206.681 46.1324 206.745 46.1324C206.81 46.1324 206.872 46.1067 206.918 46.061C206.963 46.0153 206.989 45.9534 206.989 45.8888L207.583 39.297C207.607 39.0285 207.722 38.7763 207.911 38.5835C208.099 38.3908 208.348 38.2693 208.616 38.2398L213.785 37.6649C213.844 37.66 213.899 37.6332 213.938 37.5899C213.978 37.5466 214 37.4899 214 37.4311C214.003 37.368 213.981 37.3064 213.939 37.2592C213.897 37.2119 213.839 37.1827 213.776 37.1777ZM208.558 37.7477C208.18 37.7908 207.829 37.9625 207.563 38.2339C207.296 38.5054 207.132 38.8601 207.096 39.2386L206.741 43.1994L206.385 39.2386C206.348 38.8604 206.184 38.5062 205.918 38.2349C205.652 37.9636 205.301 37.7917 204.923 37.7477L201.898 37.4165L204.923 37.0803C205.297 37.0385 205.645 36.871 205.91 36.6054C206.176 36.3399 206.343 35.9919 206.385 35.6187L206.741 31.653L207.096 35.6187C207.137 35.9923 207.304 36.3407 207.57 36.6064C207.836 36.8721 208.184 37.0393 208.558 37.0803L211.583 37.4165L208.558 37.7477ZM14.3284 37.3872L9.16411 36.8172C8.89634 36.7862 8.6473 36.6643 8.45847 36.4719C8.26965 36.2796 8.15244 36.0283 8.12639 35.76L7.53201 29.1634C7.53201 29.0988 7.50635 29.0368 7.46066 28.9912C7.41498 28.9455 7.35302 28.9198 7.28842 28.9198C7.22381 28.9198 7.16185 28.9455 7.11617 28.9912C7.07048 29.0368 7.04482 29.0988 7.04482 29.1634L6.45044 35.76C6.42439 36.0283 6.30718 36.2796 6.11836 36.4719C5.92953 36.6643 5.68049 36.7862 5.41272 36.8172L0.243597 37.3872C0.178991 37.3872 0.117031 37.4129 0.0713477 37.4586C0.0256644 37.5043 0 37.5662 0 37.6308C0 37.6954 0.0256644 37.7574 0.0713477 37.8031C0.117031 37.8488 0.178991 37.8744 0.243597 37.8744L5.41272 38.4444C5.68049 38.4755 5.92953 38.5973 6.11836 38.7897C6.30718 38.9821 6.42439 39.2334 6.45044 39.5016L7.04482 46.0982C7.04482 46.1629 7.07048 46.2248 7.11617 46.2705C7.16185 46.3162 7.22381 46.3418 7.28842 46.3418C7.35302 46.3418 7.41498 46.3162 7.46066 46.2705C7.50635 46.2248 7.53201 46.1629 7.53201 46.0982L8.12639 39.5016C8.15244 39.2334 8.26965 38.9821 8.45847 38.7897C8.6473 38.5973 8.89634 38.4755 9.16411 38.4444L14.3284 37.8744C14.393 37.8744 14.4549 37.8488 14.5006 37.8031C14.5463 37.7574 14.572 37.6954 14.572 37.6308C14.572 37.5662 14.5463 37.5043 14.5006 37.4586C14.4549 37.4129 14.393 37.3872 14.3284 37.3872ZM9.11052 37.9572C8.73248 37.9994 8.38059 38.1708 8.11429 38.4424C7.848 38.714 7.68362 39.0693 7.64894 39.4481L7.28842 43.4089L6.93276 39.4481C6.89808 39.0693 6.73371 38.714 6.46741 38.4424C6.20111 38.1708 5.84922 37.9994 5.47118 37.9572L2.45545 37.6065L5.48093 37.2703C5.85449 37.2293 6.20289 37.0622 6.46862 36.7964C6.73435 36.5307 6.90152 36.1823 6.94251 35.8087L7.29816 31.843L7.65868 35.8087C7.69967 36.1823 7.86684 36.5307 8.13257 36.7964C8.3983 37.0622 8.74671 37.2293 9.12026 37.2703L12.1409 37.6065L9.11052 37.9572ZM194.244 53.1967L191.077 52.8507C190.93 52.8335 190.792 52.766 190.689 52.6595C190.585 52.5531 190.521 52.4142 190.507 52.2661L190.142 48.2273C190.137 48.1739 190.112 48.1242 190.073 48.0882C190.033 48.0521 189.981 48.0322 189.928 48.0324C189.874 48.0323 189.823 48.0523 189.784 48.0885C189.745 48.1247 189.722 48.1743 189.718 48.2273L189.353 52.2661C189.338 52.4146 189.273 52.5536 189.168 52.6599C189.064 52.7663 188.926 52.8337 188.778 52.8507L185.616 53.1967C185.564 53.2037 185.516 53.2292 185.481 53.2685C185.446 53.3079 185.427 53.3584 185.426 53.411C185.426 53.4639 185.445 53.515 185.48 53.5546C185.515 53.5942 185.563 53.6194 185.616 53.6254L188.778 53.9762C188.927 53.9915 189.066 54.0583 189.17 54.165C189.275 54.2717 189.34 54.4117 189.353 54.5608L189.718 58.5948C189.721 58.6482 189.744 58.6985 189.783 58.7349C189.822 58.7713 189.874 58.791 189.928 58.7896C189.981 58.7899 190.033 58.77 190.073 58.7339C190.112 58.6978 190.137 58.6482 190.142 58.5948L190.507 54.5608C190.519 54.4121 190.582 54.2722 190.687 54.1654C190.791 54.0586 190.929 53.9916 191.077 53.9762L194.244 53.6254C194.297 53.6194 194.345 53.5942 194.38 53.5546C194.415 53.515 194.434 53.4639 194.434 53.411C194.434 53.3619 194.418 53.3141 194.388 53.2752C194.358 53.2363 194.316 53.2087 194.268 53.1967H194.244ZM191.033 53.5474C190.783 53.5721 190.55 53.6827 190.372 53.8604C190.194 54.038 190.084 54.2718 190.059 54.5218L189.908 56.1929L189.757 54.5218C189.734 54.2711 189.624 54.0364 189.446 53.8583C189.268 53.6803 189.033 53.5703 188.783 53.5474L187.545 53.411L188.783 53.2746C189.034 53.2527 189.269 53.143 189.447 52.9648C189.625 52.7866 189.735 52.5513 189.757 52.3002L189.908 50.634L190.059 52.3002C190.083 52.5506 190.193 52.7848 190.371 52.9627C190.549 53.1405 190.783 53.2508 191.033 53.2746L192.271 53.411L191.033 53.5474ZM77.191 18.3721L74.0145 18.0164L73.6588 14.0848C73.6563 14.0391 73.636 13.9962 73.6023 13.9653C73.5687 13.9343 73.5242 13.9178 73.4785 13.9191C73.4323 13.9177 73.3873 13.9341 73.3529 13.965C73.3184 13.9958 73.2971 14.0387 73.2934 14.0848L72.9377 18.0164L69.7564 18.3721C69.713 18.3792 69.6736 18.4014 69.6452 18.4349C69.6168 18.4684 69.6012 18.5109 69.6012 18.5548C69.6012 18.5987 69.6168 18.6412 69.6452 18.6746C69.6736 18.7081 69.713 18.7304 69.7564 18.7375L72.9377 19.0882L73.2934 23.0248C73.2982 23.0704 73.3198 23.1126 73.3541 23.1432C73.3883 23.1739 73.4326 23.1907 73.4785 23.1904C73.5239 23.1906 73.5677 23.1736 73.6011 23.1429C73.6345 23.1122 73.6551 23.07 73.6588 23.0248L74.0145 19.0931L77.1958 18.7423C77.2392 18.7352 77.2786 18.713 77.307 18.6795C77.3354 18.646 77.351 18.6035 77.351 18.5596C77.351 18.5157 77.3354 18.4732 77.307 18.4398C77.2786 18.4063 77.2392 18.384 77.1958 18.3769L77.191 18.3721ZM73.6685 18.7569L73.4737 20.9493L73.2739 18.7569L71.4518 18.5523L73.3421 18.3428V17.5974L73.4737 16.1358L73.6685 18.3331L75.4906 18.5328L73.6685 18.7569ZM25.4364 56.8652L22.255 56.5144L21.8993 52.5779C21.8957 52.5327 21.8751 52.4905 21.8417 52.4598C21.8082 52.4291 21.7645 52.4121 21.7191 52.4123C21.6732 52.412 21.6288 52.4288 21.5946 52.4594C21.5604 52.49 21.5388 52.5323 21.534 52.5779L21.1783 56.5144L17.9969 56.8652C17.9536 56.8723 17.9142 56.8946 17.8858 56.9281C17.8573 56.9615 17.8417 57.004 17.8417 57.0479C17.8417 57.0918 17.8573 57.1343 17.8858 57.1678C17.9142 57.2012 17.9536 57.2235 17.9969 57.2306L21.1783 57.5814L21.534 61.5179C21.5388 61.5636 21.5604 61.6058 21.5946 61.6364C21.6288 61.667 21.6732 61.6838 21.7191 61.6836C21.7645 61.6837 21.8082 61.6667 21.8417 61.636C21.8751 61.6053 21.8957 61.5632 21.8993 61.5179L22.255 57.5814L25.4364 57.2306C25.4797 57.2235 25.5191 57.2012 25.5475 57.1678C25.576 57.1343 25.5916 57.0918 25.5916 57.0479C25.5916 57.004 25.576 56.9615 25.5475 56.9281C25.5191 56.8946 25.4797 56.8723 25.4364 56.8652ZM21.914 57.2501L21.7191 59.4474L21.5193 57.2501L19.6972 57.0455L21.5875 56.8409V56.0906L21.7191 54.629L21.914 56.8262L23.7361 57.026L21.914 57.2501ZM143.625 7.8292L140.443 7.47842L140.088 3.54677C140.085 3.50067 140.065 3.45728 140.032 3.42556C139.998 3.39383 139.954 3.37618 139.907 3.37625C139.861 3.37611 139.816 3.39359 139.781 3.42521C139.747 3.45683 139.726 3.50024 139.722 3.54677L139.367 7.47842L136.185 7.8292C136.14 7.83409 136.098 7.85589 136.069 7.89022C136.039 7.92455 136.023 7.96889 136.024 8.01433C136.025 8.05921 136.042 8.10242 136.071 8.1363C136.1 8.17019 136.141 8.19256 136.185 8.19947L139.367 8.55025L139.722 12.4819C139.726 12.5284 139.747 12.5718 139.781 12.6035C139.816 12.6351 139.861 12.6526 139.907 12.6524C139.954 12.6525 139.998 12.6348 140.032 12.6031C140.065 12.5714 140.085 12.528 140.088 12.4819L140.443 8.55025L143.625 8.19947C143.669 8.1927 143.711 8.17051 143.741 8.13671C143.771 8.10292 143.789 8.05964 143.79 8.01433C143.791 7.96843 143.774 7.92407 143.743 7.88986C143.713 7.85565 143.67 7.83403 143.625 7.8292ZM140.102 8.21408L139.907 10.4113L139.708 8.21408L137.886 8.01433L139.776 7.80484V7.05456L139.907 5.59298L140.102 7.79023L141.924 7.98997L140.102 8.21408ZM61.9077 6.353L58.0101 5.92427C57.8083 5.90057 57.6208 5.80828 57.4789 5.66283C57.337 5.51738 57.2493 5.32761 57.2306 5.12528L56.7824 0.165646C56.7799 0.120839 56.7603 0.0786919 56.7277 0.0478788C56.6951 0.0170657 56.6519 -6.90946e-05 56.607 2.09415e-07C56.562 0.000936907 56.5188 0.0182789 56.4856 0.0487746C56.4524 0.0792703 56.4315 0.120825 56.4268 0.165646L55.9883 5.12528C55.9705 5.32793 55.8831 5.51819 55.741 5.66381C55.599 5.80943 55.4109 5.90145 55.2088 5.92427L51.3112 6.353C51.2691 6.36 51.2309 6.38171 51.2033 6.41427C51.1757 6.44684 51.1605 6.48814 51.1605 6.53083C51.1605 6.57351 51.1757 6.61482 51.2033 6.64738C51.2309 6.67995 51.2691 6.70166 51.3112 6.70865L55.2088 7.13738C55.4109 7.1602 55.599 7.25222 55.741 7.39784C55.8831 7.54346 55.9705 7.73372 55.9883 7.93638L56.4365 12.896C56.4412 12.9408 56.4622 12.9824 56.4953 13.0129C56.5285 13.0434 56.5717 13.0607 56.6168 13.0617C56.6616 13.0617 56.7048 13.0446 56.7375 13.0138C56.7701 12.983 56.7897 12.9408 56.7922 12.896L57.2404 7.93638C57.2591 7.73404 57.3467 7.54427 57.4886 7.39883C57.6305 7.25338 57.8181 7.16108 58.0199 7.13738L61.9174 6.70865C61.9595 6.70166 61.9978 6.67995 62.0254 6.64738C62.053 6.61482 62.0682 6.57351 62.0682 6.53083C62.0682 6.48814 62.053 6.44684 62.0254 6.41427C61.9978 6.38171 61.9595 6.36 61.9174 6.353H61.9077ZM57.976 6.78173C57.6924 6.81412 57.4286 6.94321 57.2289 7.14729C57.0293 7.35137 56.906 7.61798 56.8799 7.90228L56.6119 10.8839L56.3439 7.88766C56.3167 7.60295 56.1925 7.33625 55.992 7.13225C55.7915 6.92825 55.5271 6.79933 55.2429 6.76712L52.9677 6.51865L55.2429 6.26531C55.5271 6.23309 55.7915 6.10418 55.992 5.90018C56.1925 5.69617 56.3167 5.42947 56.3439 5.14476L56.6119 2.16314L56.8799 5.14476C56.906 5.42905 57.0293 5.69567 57.2289 5.89975C57.4286 6.10383 57.6924 6.23292 57.976 6.26531L60.2561 6.51865L57.976 6.78173ZM23.2781 127.913L20.2185 127.572C20.0748 127.556 19.9408 127.492 19.8395 127.389C19.7382 127.286 19.6759 127.15 19.6631 127.006L19.3124 123.109C19.3075 123.057 19.2833 123.008 19.2445 122.973C19.2057 122.938 19.1552 122.919 19.1029 122.919C19.051 122.919 19.0011 122.938 18.9631 122.974C18.9251 123.009 18.9019 123.057 18.8982 123.109L18.5475 127.006C18.5336 127.151 18.4703 127.286 18.3682 127.389C18.266 127.492 18.1314 127.557 17.9872 127.572L14.9276 127.913C14.8768 127.918 14.8296 127.941 14.7954 127.979C14.7611 128.017 14.7422 128.066 14.7425 128.117C14.7433 128.168 14.7625 128.217 14.7966 128.254C14.8306 128.292 14.8772 128.316 14.9276 128.322L17.9872 128.663C18.1309 128.678 18.2649 128.743 18.3662 128.846C18.4675 128.949 18.5298 129.084 18.5426 129.228L18.8934 133.126C18.8971 133.177 18.9203 133.226 18.9582 133.261C18.9962 133.296 19.0462 133.316 19.098 133.316C19.1503 133.316 19.2009 133.296 19.2396 133.261C19.2784 133.226 19.3026 133.178 19.3075 133.126L19.6583 129.228C19.6701 129.084 19.7321 128.948 19.8336 128.845C19.9351 128.742 20.0696 128.677 20.2137 128.663L23.2732 128.322C23.3241 128.317 23.3712 128.293 23.4055 128.255C23.4397 128.218 23.4586 128.168 23.4584 128.117C23.4587 128.067 23.4405 128.018 23.4073 127.981C23.374 127.943 23.3281 127.919 23.2781 127.913ZM20.3549 128.268C20.079 128.301 19.8225 128.427 19.6283 128.625C19.4342 128.824 19.314 129.083 19.288 129.36L19.1175 131.23L18.9616 129.36C18.9356 129.083 18.8154 128.824 18.6212 128.625C18.427 128.427 18.1705 128.301 17.8946 128.268L16.5061 128.117L17.8946 127.961C18.1705 127.931 18.4274 127.806 18.6218 127.608C18.8162 127.41 18.9363 127.151 18.9616 126.875L19.1272 125.004L19.2977 126.875C19.323 127.151 19.4431 127.41 19.6375 127.608C19.832 127.806 20.0888 127.931 20.3647 127.961L21.7532 128.117L20.3549 128.268ZM212.577 117.336L209.503 117.019C209.36 116.998 209.229 116.928 209.131 116.822C209.034 116.715 208.976 116.579 208.967 116.434L208.611 112.537C208.608 112.486 208.584 112.438 208.546 112.403C208.508 112.369 208.458 112.35 208.407 112.352C208.356 112.351 208.306 112.37 208.269 112.405C208.231 112.439 208.207 112.486 208.202 112.537L207.851 116.434C207.836 116.577 207.773 116.711 207.672 116.814C207.571 116.916 207.439 116.982 207.296 117L204.236 117.336C204.187 117.343 204.142 117.368 204.109 117.406C204.077 117.444 204.059 117.493 204.059 117.543C204.059 117.593 204.077 117.641 204.109 117.679C204.142 117.717 204.187 117.742 204.236 117.75L207.296 118.086C207.439 118.104 207.573 118.17 207.673 118.274C207.774 118.377 207.837 118.512 207.851 118.656L208.202 122.554C208.207 122.604 208.231 122.652 208.269 122.686C208.306 122.72 208.356 122.739 208.407 122.739C208.458 122.74 208.508 122.722 208.546 122.687C208.584 122.653 208.608 122.605 208.611 122.554L208.967 118.656C208.981 118.512 209.043 118.378 209.145 118.275C209.246 118.172 209.379 118.107 209.522 118.091L212.582 117.755C212.632 117.747 212.677 117.722 212.709 117.684C212.742 117.646 212.76 117.598 212.76 117.548C212.76 117.498 212.742 117.449 212.709 117.411C212.677 117.373 212.632 117.348 212.582 117.341L212.577 117.336ZM209.654 117.696C209.378 117.727 209.121 117.851 208.927 118.049C208.732 118.247 208.612 118.506 208.587 118.783L208.417 120.658L208.246 118.788C208.222 118.511 208.103 118.251 207.91 118.052C207.716 117.854 207.46 117.728 207.184 117.696L205.795 117.545L207.184 117.389C207.459 117.358 207.715 117.233 207.908 117.035C208.102 116.837 208.221 116.578 208.246 116.303L208.417 114.437L208.587 116.303C208.611 116.58 208.731 116.84 208.925 117.039C209.12 117.238 209.377 117.364 209.654 117.394L211.038 117.55L209.654 117.696ZM15.5122 145.096L10.7962 144.575C10.5506 144.547 10.3223 144.435 10.1507 144.257C9.97901 144.079 9.87479 143.847 9.85593 143.6L9.31027 137.583C9.30539 137.53 9.28067 137.48 9.24099 137.444C9.2013 137.408 9.14954 137.388 9.0959 137.389C9.04174 137.388 8.98937 137.408 8.94889 137.444C8.90841 137.48 8.88268 137.53 8.87667 137.583L8.33588 143.6C8.31684 143.847 8.21191 144.08 8.03929 144.258C7.86667 144.436 7.63723 144.548 7.39073 144.575L2.67469 145.096C2.62278 145.104 2.57539 145.13 2.54113 145.17C2.50688 145.21 2.48805 145.26 2.48805 145.313C2.48805 145.365 2.50688 145.416 2.54113 145.456C2.57539 145.496 2.62278 145.522 2.67469 145.53L7.39073 146.051C7.63723 146.077 7.86667 146.189 8.03929 146.367C8.21191 146.545 8.31684 146.778 8.33588 147.025L8.87667 153.037C8.8826 153.092 8.90814 153.142 8.94851 153.179C8.98888 153.215 9.0413 153.236 9.0959 153.237C9.14998 153.236 9.20178 153.215 9.24135 153.178C9.28092 153.141 9.30547 153.091 9.31027 153.037L9.85593 147.025C9.87479 146.779 9.97901 146.547 10.1507 146.369C10.3223 146.191 10.5506 146.078 10.7962 146.051L15.5122 145.53C15.5642 145.522 15.6115 145.496 15.6458 145.456C15.6801 145.416 15.6989 145.365 15.6989 145.313C15.6989 145.26 15.6801 145.21 15.6458 145.17C15.6115 145.13 15.5642 145.104 15.5122 145.096ZM10.7524 145.617C10.4081 145.656 10.0878 145.813 9.84553 146.06C9.60324 146.308 9.45376 146.632 9.42232 146.977L9.0959 150.592L8.76948 146.977C8.73804 146.632 8.58857 146.308 8.34627 146.06C8.10398 145.813 7.78369 145.656 7.43944 145.617L4.67706 145.31L7.43944 145.008C7.78369 144.969 8.10398 144.813 8.34627 144.565C8.58857 144.318 8.73804 143.994 8.76948 143.649L9.0959 140.034L9.42232 143.649C9.45376 143.994 9.60324 144.318 9.84553 144.565C10.0878 144.813 10.4081 144.969 10.7524 145.008L13.5099 145.31L10.7524 145.617Z" fill="#EBEBEB"/>
</svg>
